<svg xmlns="http://www.w3.org/2000/svg" viewBox="0 0 536.79 528.91"><defs><style>.cls-1{fill:#fff;}</style></defs><title>Square white logo</title><g id="Lager_2" data-name="Lager 2"><g id="Lager_1-2" data-name="Lager 1"><path class="cls-1" d="M450.31,368.46a69.73,69.73,0,0,1-3.41,8.64q-2.68,6-6.69,13.51t-9.13,15.7a135,135,0,0,1-10.71,14.84,61,61,0,0,1-11.69,11c-4.05,2.83-7.95,4.26-11.68,4.26q-8.52,0-14.48-7.79a62.35,62.35,0,0,1-9.61-19.47,138.1,138.1,0,0,1-5.24-25.56,229.33,229.33,0,0,1-1.58-26.05A568.66,568.66,0,0,1,371,282.9q4.86-36.87,12.78-73.14t18-71.93q10.1-35.66,20.32-71-5.11,0-14.24,12.17A350.26,350.26,0,0,0,387,111.18q-11.68,20-25.31,45.76T334.2,209.88Q320.33,237,306.7,263.43t-25.31,47.83c-.82,1.46-1.87,3.28-3.17,5.47a41.75,41.75,0,0,1-4.5,6.21,31.15,31.15,0,0,1-5.72,5.11,11.39,11.39,0,0,1-6.57,2.19q-3.66,0-5.11-2.43a16.38,16.38,0,0,1-1.95-6.57q-1.23-14.36-2.19-32.5t-2.07-37q-1.1-18.87-2.31-37.24t-2.68-33.59q-1.45-15.21-3.41-25.8t-4.62-14q0,1.95.24,4.38c0,1.3,0,2.92.12,4.87s.12,4.06.12,6.33a227.34,227.34,0,0,1-2.43,29.94q-2.43,17.76-7.3,38.58t-12.05,43.32a455.53,455.53,0,0,1-16.67,44.18A372,372,0,0,1,177.94,354a189.58,189.58,0,0,1-25.8,34.31,121,121,0,0,1-30.3,23.37,72.11,72.11,0,0,1-34.45,8.64q-12.4,0-20.68-4.74a44.36,44.36,0,0,1-13.39-11.44,53.78,53.78,0,0,1-7.79-13.88q-2.69-7.17-3.89-11.8l2.43-1a31.91,31.91,0,0,0,8,11.69,40.92,40.92,0,0,0,11.32,7.3,54.32,54.32,0,0,0,13.14,3.77,89.69,89.69,0,0,0,14,1.1,66.82,66.82,0,0,0,30.67-7.43,107.83,107.83,0,0,0,27.38-20.2,180.49,180.49,0,0,0,23.85-29.94,310.26,310.26,0,0,0,20.21-36.63,372.12,372.12,0,0,0,16.06-40.28q6.95-20.82,11.68-41a367.8,367.8,0,0,0,7.06-38.7,240.08,240.08,0,0,0,2.07-33.34,70.14,70.14,0,0,0-.49-7.79c-.32-2.92-.65-5.68-1-8.28a14.12,14.12,0,0,1,1.1-2.67,16.3,16.3,0,0,1,2.31-3.41,11.85,11.85,0,0,1,3.53-2.8,10.51,10.51,0,0,1,5-1.1q6.81,0,11.32,9.74T258.51,163q2.67,15.83,4.13,35.9t2.44,40.77q1,20.69,1.7,40.16T269,313.69q1.47,0,5.72-7.54t10.83-20.33q6.59-12.78,15.09-29.94t18.14-36.38q9.62-19.23,20.2-39.68t21.18-39.67q10.58-19.23,21.05-36.39t20-29.94A143.13,143.13,0,0,1,418.91,53.5Q427.18,46,433.51,46a39.43,39.43,0,0,1,3.9,2.8,4.75,4.75,0,0,1,1.94,3.77q-9,32.87-19,69.74T402,197.83q-8.4,38.7-13.87,78.13a564.31,564.31,0,0,0-5.48,77.65,156.89,156.89,0,0,0,1.46,20.32,127.24,127.24,0,0,0,4.38,20.57,64.68,64.68,0,0,0,7.06,15.94q4.14,6.45,9.49,6.45,4.62,0,11-5.84a124.58,124.58,0,0,0,12.65-13.75A171.43,171.43,0,0,0,440.21,381a146.81,146.81,0,0,0,7.66-13.51Z"/><path class="cls-1" d="M514.89,277.3l-5.05-.16L503.1,497.82h.42c-6.32,3.64-17.55,1.72-24,1.67l-84.07-.77L207.16,497s-.09,8.42,0,8.42L378.67,507l85.76.77c11.16.1,24.13,2.16,35.12-.26,7.88-1.74,9.17-8.13,9.3-15.31a58.09,58.09,0,0,0-.32-6.65Z"/><path class="cls-1" d="M536.79,241.19l-6.28-.19-8.38,274.39.53,0c-7.87,4.51-21.83,2.13-29.79,2.06l-104.54-.94-234.17-2.12s-.11,10.47,0,10.47l213.26,1.93,106.63,1c13.88.13,30,2.69,43.66-.32,9.8-2.16,11.41-10.11,11.56-19a72.54,72.54,0,0,0-.38-8.27Z"/><path class="cls-1" d="M20.07,230.64l4.63.14L30.88,28.49H30.5c5.79-3.33,16.09-1.57,22-1.52l77.06.7,172.64,1.56s.08-7.72,0-7.72L144.94,20.08l-78.61-.72c-10.23-.09-22.12-2-32.19.25-7.22,1.59-8.41,7.44-8.52,14a53.18,53.18,0,0,0,.28,6.1Z"/><path class="cls-1" d="M0,263.73l5.76.18L13.44,12.39l-.48,0c7.21-4.13,20-1.95,27.3-1.89l95.83.87,214.65,1.94s.1-9.6,0-9.6L155.25,1.92,57.51,1c-12.72-.12-27.5-2.46-40,.3-9,2-10.46,9.26-10.6,17.44a67.6,67.6,0,0,0,.36,7.59Z"/></g></g></svg>