<svg xmlns="http://www.w3.org/2000/svg" viewBox="0 0 885.17 386.91"><defs><style>.cls-1{fill:#fff;}</style></defs><title>White logo</title><g id="Lager_2" data-name="Lager 2"><g id="Lager_1-2" data-name="Lager 1"><path class="cls-1" d="M374.23,278.16a47.81,47.81,0,0,1-2.45,6.22q-1.92,4.31-4.81,9.73t-6.57,11.3a95,95,0,0,1-7.71,10.69,44.29,44.29,0,0,1-8.41,7.89,14.78,14.78,0,0,1-8.4,3.06q-6.13,0-10.42-5.6a44.9,44.9,0,0,1-6.92-14,99.71,99.71,0,0,1-3.77-18.4,165.75,165.75,0,0,1-1.13-18.75,409.32,409.32,0,0,1,3.5-53.71q3.5-26.55,9.19-52.66t13-51.78q7.27-25.66,14.63-51.08-3.68,0-10.25,8.76a248.55,248.55,0,0,0-15,23.13q-8.42,14.37-18.22,32.94T290.69,164q-10,19.55-19.79,38.55T252.69,237c-.59,1.06-1.35,2.37-2.28,4a30.34,30.34,0,0,1-3.24,4.46,22.12,22.12,0,0,1-4.12,3.68,8.1,8.1,0,0,1-4.72,1.58,3.92,3.92,0,0,1-3.68-1.75,11.88,11.88,0,0,1-1.4-4.73q-.88-10.33-1.58-23.4t-1.49-26.63q-.78-13.57-1.66-26.81t-1.93-24.19q-1.05-10.94-2.45-18.57c-.94-5.08-2-8.44-3.33-10.08a31.21,31.21,0,0,0,.18,3.16c0,.93,0,2.1.08,3.5s.09,2.92.09,4.56a162.82,162.82,0,0,1-1.75,21.55q-1.75,12.8-5.25,27.78t-8.67,31.19a328.43,328.43,0,0,1-12,31.81,267.38,267.38,0,0,1-15.24,29.7,136.68,136.68,0,0,1-18.56,24.71,87,87,0,0,1-21.81,16.82,51.89,51.89,0,0,1-24.78,6.22q-8.92,0-14.89-3.42a31.85,31.85,0,0,1-9.63-8.23,38.94,38.94,0,0,1-5.6-10q-1.94-5.18-2.8-8.5l1.75-.7a22.87,22.87,0,0,0,5.78,8.41,29.49,29.49,0,0,0,8.14,5.26,39.18,39.18,0,0,0,9.46,2.71,63.9,63.9,0,0,0,10.07.79,48.12,48.12,0,0,0,22.07-5.34,78,78,0,0,0,19.7-14.55,130,130,0,0,0,17.16-21.55A224.2,224.2,0,0,0,188.85,234a267.38,267.38,0,0,0,11.56-29q5-15,8.4-29.52a266.45,266.45,0,0,0,5.08-27.87,171.87,171.87,0,0,0,1.49-24A52.25,52.25,0,0,0,215,118c-.23-2.1-.47-4.09-.7-6a10.73,10.73,0,0,1,.79-1.93,12.47,12.47,0,0,1,1.66-2.45,8.69,8.69,0,0,1,2.54-2,7.64,7.64,0,0,1,3.59-.78q4.91,0,8.15,7t5.16,18.4q1.93,11.39,3,25.84T241,185.46q.7,14.91,1.23,28.92t1.58,24.36q1.05,0,4.11-5.44t7.79-14.63q4.74-9.19,10.86-21.55t13.05-26.2q6.92-13.84,14.54-28.56t15.24-28.57Q317,100,324.49,87.6T338.86,66a103,103,0,0,1,12.78-14.63q6-5.43,10.51-5.43a28.22,28.22,0,0,1,2.8,2,3.43,3.43,0,0,1,1.4,2.72q-6.48,23.66-13.66,50.2t-13.22,54.41q-6,27.87-10,56.25a405.85,405.85,0,0,0-3.94,55.9,112.79,112.79,0,0,0,1.05,14.64,90.63,90.63,0,0,0,3.15,14.8,46.32,46.32,0,0,0,5.08,11.48q3,4.65,6.83,4.65,3.31,0,7.88-4.21a90.05,90.05,0,0,0,9.11-9.9A125.79,125.79,0,0,0,367,287.19a106.7,106.7,0,0,0,5.51-9.73Z"/><path class="cls-1" d="M438.51,245.22a3.64,3.64,0,0,1-2.89-1.84,32,32,0,0,0-3.41-3.94,25.35,25.35,0,0,0-5.35-3.95,17.18,17.18,0,0,0-8.49-1.84,26.18,26.18,0,0,0-13.66,3.77,40.38,40.38,0,0,0-10.86,9.46,45.31,45.31,0,0,0-7.09,12.45,35.94,35.94,0,0,0-2.54,12.7q0,9.29,4.73,15.25a15.27,15.27,0,0,0,12.61,6,23.4,23.4,0,0,0,10.77-2.36,24.06,24.06,0,0,0,7.79-6.22,55.37,55.37,0,0,1-1.05-11.74,53.91,53.91,0,0,1,1.14-12.27,24.9,24.9,0,0,1,2.8-7.36,10.15,10.15,0,0,1,3.42-3.59,6.5,6.5,0,0,1,3-1c.94,0,2,.65,3.24,1.93s1.84,3.57,1.84,6.84a41.71,41.71,0,0,1-2.19,12.88,57.43,57.43,0,0,1-6,12.88,14.66,14.66,0,0,0,6.48,7.88,21,21,0,0,0,19.18.26,32.8,32.8,0,0,0,8-5.87,57.6,57.6,0,0,0,7.1-8.49q3.31-4.83,6.13-9.91l1.05.71a69.57,69.57,0,0,1-5.61,13A57.11,57.11,0,0,1,460.58,292a38.76,38.76,0,0,1-9.9,7.8,23.14,23.14,0,0,1-11.12,2.89,19.83,19.83,0,0,1-9.54-2.89q-5.17-2.9-8.5-10.43a50.93,50.93,0,0,1-12.43,10.78A28.36,28.36,0,0,1,394,304.45a16.33,16.33,0,0,1-8.23-2.1,19.69,19.69,0,0,1-6.21-5.61,26.69,26.69,0,0,1-3.94-8.24,34.76,34.76,0,0,1-1.41-10,44,44,0,0,1,3.95-17.87,58.77,58.77,0,0,1,10.5-16.12,54.68,54.68,0,0,1,15.07-11.65,37.63,37.63,0,0,1,17.77-4.47A38,38,0,0,1,433,229.89a26.84,26.84,0,0,1,7.45,3.5,14.08,14.08,0,0,1,4,4.12,7.28,7.28,0,0,1,1.23,3.33,3.46,3.46,0,0,1-2.54,3.42A13.23,13.23,0,0,1,438.51,245.22ZM423.8,268.53a41.58,41.58,0,0,0,1.05,10,41.54,41.54,0,0,0,3.85-10.07,39.24,39.24,0,0,0,1.23-8.85c0-2.92-.53-4.38-1.58-4.38s-2.07,1.29-3.06,3.85A26.25,26.25,0,0,0,423.8,268.53Z"/><path class="cls-1" d="M534.14,267.83c-.24.81-1.14,3-2.72,6.57a72.88,72.88,0,0,1-6.48,11.39,53.68,53.68,0,0,1-9.81,10.86,19.33,19.33,0,0,1-12.87,4.82q-9.28,0-16.81-7.1t-12.88-20.15q-5.34-13.05-8.23-31.63a272.37,272.37,0,0,1-2.89-41.53q0-12.62.88-26.55t2.8-27.42q1.94-13.5,4.82-25.76a127.58,127.58,0,0,1,6.92-21.56A49,49,0,0,1,486.24,85q5.34-5.52,11.82-5.52,9.63,0,14.1,11.74t4.46,36.27a276.72,276.72,0,0,1-2.1,32.16A248.87,248.87,0,0,1,507.34,196a315.24,315.24,0,0,1-13.92,40q-7.28,16.56-12.35,26.37a104.09,104.09,0,0,0,4.29,12.44,48.91,48.91,0,0,0,5.34,9.73,24.81,24.81,0,0,0,6.48,6.4,13.86,13.86,0,0,0,7.71,2.27,16.93,16.93,0,0,0,9.81-3.15,42.8,42.8,0,0,0,8.14-7.36,63.77,63.77,0,0,0,6.22-8.59c1.75-2.92,3.09-5.25,4-7Zm-62-79q0,7.36.43,15.86t1.32,17.26q.87,8.78,2.19,17.53t3.24,16.82q3.68-7.71,8.67-19.8t9.63-27.25a292.56,292.56,0,0,0,7.88-32.86,203,203,0,0,0,3.24-36.62q0-11.91-1-21.82a105.64,105.64,0,0,0-2.89-17,33.81,33.81,0,0,0-4.82-11c-1.93-2.62-4.17-3.94-6.74-3.94s-4.67,1.73-6.66,5.17a60.71,60.71,0,0,0-5.34,13.58A173.92,173.92,0,0,0,477.22,124q-1.75,10.86-2.89,22.25t-1.67,22.52Q472.14,179.86,472.14,188.79Z"/><path class="cls-1" d="M535.71,233a5.28,5.28,0,0,1,2.72.79,14.35,14.35,0,0,1,2.27,1.67,9.21,9.21,0,0,1,1.58,1.84,4.14,4.14,0,0,1,.61,1.14,16.73,16.73,0,0,1-.44,1.84q-.44,1.67-1.05,5.52t-1,10.07q-.44,6.23-.43,15.51,0,12.45,3.06,17.35t7.44,4.9a16.45,16.45,0,0,0,8.67-2.62,38.24,38.24,0,0,0,8.15-6.84,69.75,69.75,0,0,0,7.27-9.55,104.4,104.4,0,0,0,6-10.78l1.05.71c-.47,1.16-1.17,2.95-2.1,5.34s-2.1,5-3.51,7.8a90.24,90.24,0,0,1-5,8.67,44,44,0,0,1-6.65,8.06,37,37,0,0,1-8.23,6,20.43,20.43,0,0,1-9.72,2.37,15.94,15.94,0,0,1-6.75-1.41,13,13,0,0,1-5.43-5.16,31.21,31.21,0,0,1-3.67-10.43,91.12,91.12,0,0,1-1.32-17.17q0-5.43.44-11.66t1.23-11.56a48.47,48.47,0,0,1,2-8.85Q534.14,233,535.71,233Zm4.21-43.45q4.37,0,6.3,3.06a13.79,13.79,0,0,1,1.93,7.45c0,3.39-.94,6-2.8,7.88a9.31,9.31,0,0,1-6.84,2.81,9.1,9.1,0,0,1-5.78-2.28c-1.86-1.52-2.8-4-2.8-7.36,0-3.74.94-6.6,2.8-8.59A9.46,9.46,0,0,1,539.92,189.5Z"/><path class="cls-1" d="M584.4,227.7c.58,0,1.05.46,1.4,1.4a15.24,15.24,0,0,1,.79,3.33,31.35,31.35,0,0,1,.26,4.11v4q0,4.56-.26,9.37c-.17,3.22-.35,6.31-.53,9.29s-.32,5.73-.43,8.24-.18,4.58-.18,6.22a60.22,60.22,0,0,0,.35,7.27c.23,1.81.82,2.72,1.75,2.72.59,0,1.34-.76,2.28-2.28s1.95-3.36,3.06-5.52,2.19-4.47,3.25-6.92,2-4.62,3-6.49q1.75-3.67,3.94-8.15t4.64-8.41a34.72,34.72,0,0,1,5.17-6.57,8.17,8.17,0,0,1,5.69-2.63,5.8,5.8,0,0,1,3.42,1.05,9.61,9.61,0,0,1,2.54,2.72,16.09,16.09,0,0,1,1.66,3.51,32.85,32.85,0,0,1,1,3.41q.52,4,1.14,12.71t1.67,18.48q.87,9.83,4.73,14.29a12.53,12.53,0,0,0,10,4.46,17.45,17.45,0,0,0,3.94-.35,11.57,11.57,0,0,1,2.54-.35c.58,0,.7.59.35,1.76a4.55,4.55,0,0,1-.79,1,7.81,7.81,0,0,1-2,1.31,16.63,16.63,0,0,1-3.77,1.23,26.53,26.53,0,0,1-5.69.53,20.75,20.75,0,0,1-9.28-1.84,14.09,14.09,0,0,1-6-5.87,31.68,31.68,0,0,1-3.33-10.43,128.4,128.4,0,0,1-1.4-15.33c-.23-2.81-.43-5.52-.61-8.15a53.27,53.27,0,0,0-.88-7,16.71,16.71,0,0,0-1.66-4.91,3.28,3.28,0,0,0-3-1.84q-1.57,0-3.76,3.16a56.87,56.87,0,0,0-4.29,7.44q-2.1,4.31-3.94,8.85t-3.07,7.19q-3.85,8.24-6.39,13.49c-1.7,3.51-3.53,6.9-5.52,10.16a10.5,10.5,0,0,1-1.84,2.28,3.35,3.35,0,0,1-2.36.88q-2.1,0-3.33-3.51a40.83,40.83,0,0,1-1.84-8.06q-.62-4.55-.79-9.2c-.11-3.09-.17-5.46-.17-7.09q0-2.81.09-6.84t.26-7.88q.17-3.85.26-7c.06-2.11.09-3.51.09-4.21s0-1.66-.09-2.89-.09-2.45-.09-3.68,0-2.34-.08-3.33-.09-1.66-.09-2a3.59,3.59,0,0,1,.79-2.37,6.51,6.51,0,0,1,1.66-1.49c.58-.35,1.52-1,2.8-1.84A6.07,6.07,0,0,1,584.4,227.7Z"/><path class="cls-1" d="M714,245.22a3.64,3.64,0,0,1-2.89-1.84,31.17,31.17,0,0,0-3.41-3.94,25,25,0,0,0-5.34-3.95,17.22,17.22,0,0,0-8.5-1.84,26.2,26.2,0,0,0-13.66,3.77,40.53,40.53,0,0,0-10.86,9.46,45.57,45.57,0,0,0-7.09,12.45,36.16,36.16,0,0,0-2.54,12.7q0,9.29,4.73,15.25a15.28,15.28,0,0,0,12.61,6,23.34,23.34,0,0,0,10.77-2.36,24.06,24.06,0,0,0,7.79-6.22,55.37,55.37,0,0,1-1.05-11.74,53.91,53.91,0,0,1,1.14-12.27,24.9,24.9,0,0,1,2.8-7.36,10.15,10.15,0,0,1,3.42-3.59,6.54,6.54,0,0,1,3-1c.93,0,2,.65,3.24,1.93s1.84,3.57,1.84,6.84a41.71,41.71,0,0,1-2.19,12.88,57.47,57.47,0,0,1-6,12.88,14.71,14.71,0,0,0,6.48,7.88,20,20,0,0,0,10,2.45,19.82,19.82,0,0,0,9.19-2.19,32.84,32.84,0,0,0,8.06-5.87,57.55,57.55,0,0,0,7.09-8.49q3.33-4.83,6.13-9.91l1.05.71a70.19,70.19,0,0,1-5.6,13A57.15,57.15,0,0,1,736.07,292a38.72,38.72,0,0,1-9.89,7.8,23.18,23.18,0,0,1-11.13,2.89,19.83,19.83,0,0,1-9.54-2.89q-5.18-2.9-8.5-10.43a50.93,50.93,0,0,1-12.43,10.78,28.33,28.33,0,0,1-15.06,4.29,16.28,16.28,0,0,1-8.23-2.1,19.72,19.72,0,0,1-6.22-5.61,26.92,26.92,0,0,1-3.94-8.24,34.76,34.76,0,0,1-1.4-10,44,44,0,0,1,3.94-17.87,59,59,0,0,1,10.51-16.12,54.63,54.63,0,0,1,15.06-11.65A37.66,37.66,0,0,1,697,228.4a38.13,38.13,0,0,1,11.48,1.49,26.91,26.91,0,0,1,7.44,3.5,14.13,14.13,0,0,1,4,4.12,7.36,7.36,0,0,1,1.22,3.33,3.45,3.45,0,0,1-2.54,3.42A13.18,13.18,0,0,1,714,245.22Zm-14.71,23.31a41.58,41.58,0,0,0,1.05,10,41.17,41.17,0,0,0,3.86-10.07,39.74,39.74,0,0,0,1.22-8.85c0-2.92-.52-4.38-1.57-4.38s-2.08,1.29-3.07,3.85A26.47,26.47,0,0,0,699.29,268.53Z"/><path class="cls-1" d="M872.17,237.55l-3-.1-4,131h.25c-3.76,2.16-10.43,1-14.23,1L801.29,369,689.5,368s-.06,5,0,5l101.81.92,50.91.46c6.63.06,14.32,1.28,20.85-.16,4.67-1,5.44-4.82,5.51-9.09a32.18,32.18,0,0,0-.18-3.95Z"/><path class="cls-1" d="M885.17,216.11l-3.72-.11-5,162.88h.31c-4.67,2.68-12.95,1.27-17.68,1.23L797,379.56,658,378.3s-.07,6.22,0,6.22l126.59,1.14,63.3.57c8.24.08,17.81,1.6,25.92-.19,5.81-1.28,6.77-6,6.86-11.3a41.75,41.75,0,0,0-.23-4.91Z"/><path class="cls-1" d="M13,149.36l3,.09,4-131h-.25c3.75-2.16,10.42-1,14.22-1l49.91.45,111.8,1s0-5,0-5L93.86,13,43,12.54c-6.63-.06-14.33-1.28-20.85.16-4.68,1-5.45,4.82-5.52,9.08a36.46,36.46,0,0,0,.18,3.95Z"/><path class="cls-1" d="M0,170.79l3.73.12L8.7,8H8.39c4.67-2.68,13-1.26,17.69-1.22l62.05.56,139,1.26s.06-6.22,0-6.22L100.54,1.24,37.25.67C29,.6,19.44-.92,11.33.87c-5.82,1.28-6.78,6-6.87,11.29a46.3,46.3,0,0,0,.23,4.91Z"/></g></g></svg>